<svg xmlns="http://www.w3.org/2000/svg" xmlns:xlink="http://www.w3.org/1999/xlink" contentStyleType="text/css" height="270px" preserveAspectRatio="none" style="width:404px;height:270px;background:#FFFFFF;" version="1.1" viewBox="0 0 404 270" width="404px" zoomAndPan="magnify"><defs/><g><ellipse cx="140.13" cy="16" fill="#222222" rx="10" ry="10" style="stroke:#222222;stroke-width:1.0;"/><g id="state_led_off"><rect fill="#F1F1F1" height="50" rx="12.5" ry="12.5" style="stroke:#181818;stroke-width:0.5;" width="72.7529" x="103.76" y="87"/><line style="stroke:#181818;stroke-width:0.5;" x1="103.76" x2="176.5129" y1="113.2969" y2="113.2969"/><text fill="#000000" font-family="sans-serif" font-size="14" lengthAdjust="spacing" textLength="52.7529" x="113.76" y="104.9951">LED Off</text></g><g id="state_led_on"><rect fill="#F1F1F1" height="50" rx="12.5" ry="12.5" style="stroke:#181818;stroke-width:0.5;" width="71.7686" x="104.25" y="214"/><line style="stroke:#181818;stroke-width:0.5;" x1="104.25" x2="176.0186" y1="240.2969" y2="240.2969"/><text fill="#000000" font-family="sans-serif" font-size="14" lengthAdjust="spacing" textLength="51.7686" x="114.25" y="231.9951">LED On</text></g><!--link *start* to state_led_off--><g id="link_*start*_state_led_off"><path d="M140.13,26.36 C140.13,40.29 140.13,60.95 140.13,80.65 " fill="none" id="*start*-to-state_led_off" style="stroke:#181818;stroke-width:1.0;"/><polygon fill="#181818" points="140.13,86.65,144.13,77.65,140.13,81.65,136.13,77.65,140.13,86.65" style="stroke:#181818;stroke-width:1.0;"/></g><!--link state_led_off to state_led_on--><g id="link_state_led_off_state_led_on"><path d="M103.49,119.83 C77.26,126.83 43.77,140.61 27.13,167 C6,200.51 57.6904,219.5103 98.2204,229.3803 " fill="none" id="state_led_off-to-state_led_on" style="stroke:#181818;stroke-width:1.0;"/><polygon fill="#181818" points="104.05,230.8,96.252,224.7841,99.192,229.617,94.3591,232.5569,104.05,230.8" style="stroke:#181818;stroke-width:1.0;"/><text fill="#000000" font-family="sans-serif" font-size="13" lengthAdjust="spacing" textLength="179.9561" x="28.13" y="180.0669">timer_event / action_led_on</text></g><!--link state_led_on to state_led_off--><g id="link_state_led_on_state_led_off"><path d="M176.4,221.84 C199.58,208.98 223.36,189.45 212.13,167 C204.59,151.91 195.6329,143.1911 181.9829,134.3911 " fill="none" id="state_led_on-to-state_led_off" style="stroke:#181818;stroke-width:1.0;"/><polygon fill="#181818" points="176.94,131.14,182.3369,139.3785,181.1424,133.8492,186.6717,132.6547,176.94,131.14" style="stroke:#181818;stroke-width:1.0;"/><text fill="#000000" font-family="sans-serif" font-size="13" lengthAdjust="spacing" textLength="180.8701" x="215.13" y="180.0669">timer_event / action_led_off</text></g><!--SRC=[YzQALT3LjLCeBaaiIOtFIKs9pqzBu-82SnMKV5nT5FpJqfGK4elHL20ho4ENpuCQ05EDRaEUWfL2IMPkQb5yQbbgNec2la9YSabcVXvCDufI3DVXrPoM1W00]--></g></svg>